<?xml version="1.0" encoding="iso-8859-1"?>
<!-- Uploaded to: SVG Repo, www.svgrepo.com, Generator: SVG Repo Mixer Tools -->
<svg fill="#000000" height="800px" width="800px" version="1.1" id="Layer_1" xmlns="http://www.w3.org/2000/svg" xmlns:xlink="http://www.w3.org/1999/xlink" 
	 viewBox="0 0 512 512" xml:space="preserve">
<g>
	<g>
		<path d="M333.187,237.405c32.761-23.893,54.095-62.561,54.095-106.123C387.282,58.893,328.389,0,256,0
			S124.718,58.893,124.718,131.282c0,43.562,21.333,82.23,54.095,106.123C97.373,268.57,39.385,347.531,39.385,439.795
			c0,39.814,32.391,72.205,72.205,72.205H400.41c39.814,0,72.205-32.391,72.205-72.205
			C472.615,347.531,414.627,268.57,333.187,237.405z M164.103,131.282c0-50.672,41.225-91.897,91.897-91.897
			s91.897,41.225,91.897,91.897S306.672,223.18,256,223.18S164.103,181.954,164.103,131.282z M198.279,472.615h-86.69
			c-18.097,0-32.82-14.723-32.82-32.821c0-77.342,49.803-143.262,119.02-167.399c-2.67,15.897,1.164,32.672,11.504,46.012
			L198.279,472.615z M237.765,472.615l9.426-131.971c5.838,0.873,11.78,0.873,17.618,0l9.426,131.971H237.765z M269.925,296.18
			c-7.679,7.679-20.172,7.679-27.849,0c-7.679-7.677-7.679-20.17,0-27.849c7.677-7.679,20.17-7.679,27.849,0
			C277.604,276.01,277.604,288.503,269.925,296.18z M400.41,472.615h-86.689l-11.015-154.208
			c10.34-13.341,14.174-30.115,11.504-46.012c69.216,24.138,119.02,90.057,119.02,167.399
			C433.231,457.892,418.508,472.615,400.41,472.615z"/>
	</g>
</g>
</svg>