<?xml version="1.0" encoding="iso-8859-1"?>
<!-- Uploaded to: SVG Repo, www.svgrepo.com, Generator: SVG Repo Mixer Tools -->
<svg height="800px" width="800px" version="1.1" id="Layer_1" xmlns="http://www.w3.org/2000/svg" xmlns:xlink="http://www.w3.org/1999/xlink" 
	 viewBox="0 0 511.999 511.999" xml:space="preserve">
<path style="fill:#003778;" d="M288.725,304.348L288.725,304.348H19.318l0,0H0v96.218c0,53.995,67.654,96.291,154.022,96.291
	s154.022-42.296,154.022-96.291v-96.218H288.725z"/>
<path d="M154.022,496.414c86.368,0,154.022-42.297,154.022-96.292v-96.216H154.544"/>
<path style="fill:#0052B4;" d="M269.407,207.65L269.407,207.65H38.636l0,0H0v96.218c0,53.995,67.654,96.291,154.022,96.291
	s154.022-42.296,154.022-96.291V207.65H269.407z"/>
<path style="fill:#003778;" d="M154.022,401.166c86.368,0,154.022-42.296,154.022-96.292v-96.216H154.544"/>
<path style="fill:#006DF0;" d="M269.407,111.433L269.407,111.433l-230.771,0.001v-0.001H0v96.218
	c0,53.995,67.654,96.292,154.022,96.292s154.022-42.297,154.022-96.292v-96.218H269.407z"/>
<path style="fill:#0052B4;" d="M154.022,303.943c86.368,0,154.022-42.297,154.022-96.292v-96.218H154.544"/>
<path style="fill:#93C7EF;" d="M154.022,15.143C67.654,15.143,0,57.439,0,111.433c0,53.996,67.654,96.294,154.022,96.294
	s154.022-42.297,154.022-96.294C308.043,57.439,240.389,15.143,154.022,15.143z"/>
<path style="fill:#78B9EB;" d="M154.022,207.726c86.368,0,154.022-42.297,154.022-96.294c0-53.995-67.654-96.291-154.022-96.291"/>
<path style="fill:#FFAD41;" d="M511.999,398.943l-31.416-18.137c5.616-14.364,8.706-29.984,8.706-46.316
	c0-16.331-3.088-31.952-8.706-46.317l31.416-18.137l-19.318-33.459l-31.469,18.168c-19.576-24.373-47.9-41.435-80.167-46.357
	v-36.265h-38.636v36.265c-32.267,4.922-60.592,21.984-80.167,46.357l-31.47-18.168l-19.318,33.459l31.416,18.137
	c-5.616,14.365-8.706,29.985-8.706,46.317c0,16.331,3.088,31.952,8.706,46.316l-31.416,18.137l19.318,33.459l31.47-18.168
	c19.576,24.374,47.9,41.436,80.167,46.358v36.264h38.636v-36.264c32.269-4.922,60.592-21.984,80.167-46.358l31.469,18.168
	L511.999,398.943z M361.727,386.387c-28.616,0-51.895-23.279-51.895-51.895c0-28.616,23.278-51.896,51.895-51.896
	c28.615,0,51.895,23.279,51.895,51.896C413.621,363.106,390.342,386.387,361.727,386.387z"/>
<path style="fill:#FF9811;" d="M489.288,334.492c0-16.331-3.088-31.952-8.706-46.317l31.416-18.137l-19.318-33.459l-31.469,18.168
	c-19.576-24.373-47.9-41.435-80.167-46.357v-36.265h-21.487v110.526c0.72-0.03,1.441-0.055,2.169-0.055
	c28.615,0,51.895,23.279,51.895,51.896c0,28.615-23.279,51.895-51.895,51.895c-0.726,0-1.449-0.026-2.169-0.054v110.525h21.487
	v-36.264c32.269-4.922,60.592-21.984,80.167-46.358l31.469,18.168l19.318-33.459l-31.416-18.137
	C486.199,366.443,489.288,350.822,489.288,334.492z"/>
</svg>